<?xml version="1.0" encoding="utf-8"?>
<!-- Generator: Adobe Illustrator 19.0.0, SVG Export Plug-In . SVG Version: 6.00 Build 0)  -->
<svg version="1.1" id="Layer_1" xmlns="http://www.w3.org/2000/svg" xmlns:xlink="http://www.w3.org/1999/xlink" x="0px" y="0px"
	 viewBox="0 0 30 30" style="enable-background:new 0 0 30 30;" xml:space="preserve">
<style type="text/css">
	.st0{fill-rule:evenodd;clip-rule:evenodd;fill:#9BA3A9;}
</style>
<g>
	<path class="st0" d="M19,4.5H9c-1.1,0-2,0.9-2,2v17c0,1.1,0.9,2,2,2h12c1.1,0,2-0.9,2-2v-15L19,4.5z M21,22.5c0,0.6-0.4,1-1,1H10
		c-0.6,0-1-0.4-1-1v-15c0-0.6,0.4-1,1-1h8l3,3V22.5z"/>
	<path class="st0" d="M16,14v-2c0-0.6-0.4-1-1-1s-1,0.4-1,1v2h-2c-0.6,0-1,0.4-1,1s0.4,1,1,1h2v2c0,0.6,0.4,1,1,1s1-0.4,1-1v-2h2
		c0.6,0,1-0.4,1-1s-0.4-1-1-1H16z"/>
</g>
</svg>
