<svg width="54" height="68" xmlns="http://www.w3.org/2000/svg">
 <style type="text/css">.st0{fill-rule:evenodd;clip-rule:evenodd;fill:#BBC2C7;}
	.st1{fill-rule:evenodd;clip-rule:evenodd;fill:#A4C5E2;}</style>

 <g>
  <title>background</title>
  <rect fill="none" id="canvas_background" height="70" width="56" y="-1" x="-1"/>
 </g>
 <g>
  <title>Layer 1</title>
  <path id="svg_1" d="m37,0l-37,0l0,66l54,0l0,-49l-17,-17zm15,64l-50,0l0,-62l32.1,0l-0.1,18l18,0l0,44zm-16,-46l0,-16l16,16l-16,0z" class="st0"/>
  <g id="svg_2">
   <g id="svg_3">
    <path id="svg_4" d="m30,32l-19,0l0,2l19,0l0,-2zm-19,23l32,0l0,-2l-32,0l0,2zm16,-37l-16,0l0,2l16,0l0,-2zm0,-7l-16,0l0,2l16,0l0,-2zm3,14l-19,0l0,2l19,0l0,-2zm-19,23l32,0l0,-2l-32,0l0,2zm23,-23l0,9l9,0l0,-9l-9,0zm7,7l-5,0l0,-5l5,0l0,5zm-30,9l32,0l0,-2l-32,0l0,2z" class="st1"/>
   </g>
  </g>
 </g>
</svg>