<?xml version="1.0" encoding="utf-8"?>
<!-- Generator: Adobe Illustrator 19.0.0, SVG Export Plug-In . SVG Version: 6.00 Build 0)  -->
<svg version="1.1" id="Layer_1" xmlns="http://www.w3.org/2000/svg" xmlns:xlink="http://www.w3.org/1999/xlink" x="0px" y="0px"
	 viewBox="0 0 30 30" style="enable-background:new 0 0 30 30;" xml:space="preserve">
<style type="text/css">
	.st0{fill-rule:evenodd;clip-rule:evenodd;fill:#9BA3A9;}
</style>
<g>
	<path class="st0" d="M23,26.5H7c-1.1,0-2-0.9-2-2v-17c0-1.1,0.9-2,2-2h2v-1c0-0.6,0.4-1,1-1s1,0.4,1,1v1h8v-1c0-0.6,0.4-1,1-1
		s1,0.4,1,1v1h2c1.1,0,2,0.9,2,2v17C25,25.6,24.1,26.5,23,26.5z M23,8.5c0-0.6-0.4-1-1-1H8c-0.6,0-1,0.4-1,1v2h16V8.5z M23,12.5H7
		v11c0,0.6,0.4,1,1,1h14c0.6,0,1-0.4,1-1V12.5z M19,21.5c-0.6,0-1-0.4-1-1s0.4-1,1-1s1,0.4,1,1S19.6,21.5,19,21.5z M19,17.5
		c-0.6,0-1-0.4-1-1c0-0.6,0.4-1,1-1s1,0.4,1,1C20,17.1,19.6,17.5,19,17.5z M15,21.5c-0.6,0-1-0.4-1-1s0.4-1,1-1s1,0.4,1,1
		S15.6,21.5,15,21.5z M15,17.5c-0.6,0-1-0.4-1-1c0-0.6,0.4-1,1-1s1,0.4,1,1C16,17.1,15.6,17.5,15,17.5z M11,21.5c-0.6,0-1-0.4-1-1
		s0.4-1,1-1s1,0.4,1,1S11.6,21.5,11,21.5z M11,17.5c-0.6,0-1-0.4-1-1c0-0.6,0.4-1,1-1s1,0.4,1,1C12,17.1,11.6,17.5,11,17.5z"/>
</g>
</svg>
