<?xml version="1.0" encoding="utf-8"?>
<!-- Generator: Adobe Illustrator 19.0.0, SVG Export Plug-In . SVG Version: 6.00 Build 0)  -->
<svg version="1.1" id="Layer_1" xmlns="http://www.w3.org/2000/svg" xmlns:xlink="http://www.w3.org/1999/xlink" x="0px" y="0px"
	 viewBox="0 0 30 30" style="enable-background:new 0 0 30 30;" xml:space="preserve">
<style type="text/css">
	.st0{fill-rule:evenodd;clip-rule:evenodd;fill:#9BA3A9;}
</style>
<g>
	<path class="st0" d="M16.4,15l6.4,6.4c0.4,0.4,0.4,1,0,1.4c-0.4,0.4-1,0.4-1.4,0L15,16.4l-6.4,6.4c-0.4,0.4-1,0.4-1.4,0
		c-0.4-0.4-0.4-1,0-1.4l6.4-6.4L7.2,8.6c-0.4-0.4-0.4-1,0-1.4s1-0.4,1.4,0l6.4,6.4l6.4-6.4c0.4-0.4,1-0.4,1.4,0c0.4,0.4,0.4,1,0,1.4
		L16.4,15z"/>
</g>
</svg>
