<?xml version="1.0" encoding="utf-8"?>
<!-- Generator: Adobe Illustrator 19.1.0, SVG Export Plug-In . SVG Version: 6.00 Build 0)  -->
<svg version="1.1" xmlns="http://www.w3.org/2000/svg" xmlns:xlink="http://www.w3.org/1999/xlink" x="0px" y="0px"
	 viewBox="0 0 30 30" style="enable-background:new 0 0 30 30;" xml:space="preserve">
<style type="text/css">
	.st0{fill:#9BA3A9;}
	.st1{fill:#9BA3A9;}
	.st2{fill:#FFFFFF;}
</style>
<g id="Layer_2">
	<path class="st0" d="M11,7.4c-0.2-1.1-1.2-2-2.4-2s-2.2,0.9-2.4,2H3v0.8h3.2c0.2,1.1,1.2,2,2.4,2s2.2-0.9,2.4-2h16V7.4H11z
		 M8.6,9.4C7.7,9.4,7,8.7,7,7.8s0.7-1.6,1.6-1.6c0.9,0,1.6,0.7,1.6,1.6S9.5,9.4,8.6,9.4z M8.6,19.8c-1.2,0-2.2,0.9-2.4,2H3v0.8h3.2
		c0.2,1.1,1.2,2,2.4,2s2.2-0.9,2.4-2h16v-0.8H11C10.8,20.7,9.8,19.8,8.6,19.8z M8.6,23.8c-0.9,0-1.6-0.7-1.6-1.6s0.7-1.6,1.6-1.6
		c0.9,0,1.6,0.7,1.6,1.6S9.5,23.8,8.6,23.8z M21.4,12.6c-1.2,0-2.2,0.9-2.4,2H3v0.8h16c0.2,1.1,1.2,2,2.4,2c1.2,0,2.2-0.9,2.4-2H27
		v-0.8h-3.2C23.6,13.5,22.6,12.6,21.4,12.6z M21.4,16.6c-0.9,0-1.6-0.7-1.6-1.6s0.7-1.6,1.6-1.6c0.9,0,1.6,0.7,1.6,1.6
		S22.3,16.6,21.4,16.6z"/>
</g>
<g id="Layer_1">
	<rect x="3" y="14" class="st1" width="24" height="2"/>
	<rect x="3" y="7" class="st1" width="24" height="2"/>
	<rect x="3" y="21" class="st1" width="24" height="2"/>
	<circle class="st1" cx="21" cy="15" r="3"/>
	<circle class="st2" cx="21" cy="15" r="1.4"/>
	<circle class="st1" cx="9" cy="8" r="3"/>
	<circle class="st2" cx="9" cy="8" r="1.4"/>
	<circle class="st1" cx="9" cy="22" r="3"/>
	<circle class="st2" cx="9" cy="22" r="1.4"/>
</g>
</svg>
