<svg width="62" height="50" xmlns="http://www.w3.org/2000/svg">
 <style type="text/css">.st0{fill-rule:evenodd;clip-rule:evenodd;fill:#9BA3A9;}</style>

 <g>
  <title>background</title>
  <rect fill="none" id="canvas_background" height="52" width="64" y="-1" x="-1"/>
 </g>
 <g>
  <title>Layer 1</title>
  <path id="svg_1" d="m19.9,5c-0.5,-2.8 -2.9,-5 -5.9,-5s-5.4,2.2 -5.9,5l-8.1,0l0,2l8.1,0c0.5,2.8 2.9,5 5.9,5s5.4,-2.2 5.9,-5l40.1,0l0,-2l-40.1,0zm-5.9,5c-2.2,0 -4,-1.8 -4,-4s1.8,-4 4,-4s4,1.8 4,4s-1.8,4 -4,4zm0,26c-3,0 -5.4,2.2 -5.9,5l-8.1,0l0,2l8.1,0c0.5,2.8 2.9,5 5.9,5s5.4,-2.2 5.9,-5l40.1,0l0,-2l-40.1,0c-0.5,-2.8 -2.9,-5 -5.9,-5zm0,10c-2.2,0 -4,-1.8 -4,-4s1.8,-4 4,-4s4,1.8 4,4s-1.8,4 -4,4zm32,-28c-3,0 -5.4,2.2 -5.9,5l-40.1,0l0,2l40.1,0c0.5,2.8 2.9,5 5.9,5s5.4,-2.2 5.9,-5l8.1,0l0,-2l-8.1,0c-0.5,-2.8 -2.9,-5 -5.9,-5zm0,10c-2.2,0 -4,-1.8 -4,-4s1.8,-4 4,-4s4,1.8 4,4s-1.8,4 -4,4z" class="st0"/>
 </g>
</svg>
