<?xml version="1.0" encoding="utf-8"?>
<!-- Generator: Adobe Illustrator 19.0.0, SVG Export Plug-In . SVG Version: 6.00 Build 0)  -->
<svg version="1.1" id="Layer_1" xmlns="http://www.w3.org/2000/svg" xmlns:xlink="http://www.w3.org/1999/xlink" x="0px" y="0px"
	 viewBox="0 0 30 30" style="enable-background:new 0 0 30 30;" xml:space="preserve">
<style type="text/css">
	.st0{fill:#9BA3A9;}
	.st1{fill-rule:evenodd;clip-rule:evenodd;fill:#9BA3A9;}
</style>
<g>
	<path class="st0" d="M15.7,5.3l2.8,2.8c0.4,0.4,0.4,1,0,1.4s-1,0.4-1.4,0L16,8.4v8.5c0,0.6-0.4,1-1,1s-1-0.4-1-1V8.4l-1.1,1.1
		c-0.4,0.4-1,0.4-1.4,0s-0.4-1,0-1.4l2.8-2.8C14.7,4.9,15.3,4.9,15.7,5.3z"/>
	<path class="st1" d="M6,20h18c0.6,0,1,0.4,1,1v3c0,0.6-0.4,1-1,1H6c-0.6,0-1-0.4-1-1v-3C5,20.4,5.4,20,6,20z"/>
</g>
</svg>
