<?xml version="1.0" encoding="UTF-8" standalone="no"?>
<svg
   xmlns:dc="http://purl.org/dc/elements/1.1/"
   xmlns:cc="http://creativecommons.org/ns#"
   xmlns:rdf="http://www.w3.org/1999/02/22-rdf-syntax-ns#"
   xmlns:svg="http://www.w3.org/2000/svg"
   xmlns="http://www.w3.org/2000/svg"
   xmlns:sodipodi="http://sodipodi.sourceforge.net/DTD/sodipodi-0.dtd"
   xmlns:inkscape="http://www.inkscape.org/namespaces/inkscape"
   height="32px"
   version="1.1"
   viewBox="0 0 32 32"
   width="32px"
   id="svg2"
   inkscape:version="0.91 r13725"
   sodipodi:docname="file.svg">
  <metadata
     id="metadata15">
    <rdf:RDF>
      <cc:Work
         rdf:about="">
        <dc:format>image/svg+xml</dc:format>
        <dc:type
           rdf:resource="http://purl.org/dc/dcmitype/StillImage" />
        <dc:title></dc:title>
      </cc:Work>
    </rdf:RDF>
  </metadata>
  <g
     fill="none"
     fill-rule="evenodd"
     id="Page-1"
     stroke="none"
     stroke-width="1">
    <g
       fill="#BABABA"
       id="icon-81-document-add">
      <path
         d="M 5.9974219,29 C 4.8909254,29 4,28.101288 4,26.99267 L 4,4.0073299 C 4,2.8983383 4.8966662,2 6.0027601,2 L 16.5,2 l 0,0 0.5,0 6,7 0,0.5 0,17.505 c 0.0241,1.043313 -0.874613,1.967955 -2,1.995 -1.261285,0.03031 -1.170135,6.7e-5 -3.752775,0 z M 22,27.005 C 22.01856,27.451916 21.589642,27.996332 21,28 L 5.9999602,28 C 5.4547089,28 5,27.554319 5,27.004543 L 5,3.995457 C 5,3.4552629 5.4457352,3 5.9955775,3 L 16,3 16,7.994081 C 16,9.1134452 16.894496,10 17.997913,10 L 22,10 M 17,3.5 17,7.9912152 C 17,8.5483517 17.450651,9 17.996739,9 l 3.703212,0 z"
         id="document-add"
         inkscape:connector-curvature="0"
         sodipodi:nodetypes="csssscccccscccccsssscscccssc" />
    </g>
  </g>
</svg>
