<?xml version="1.0" encoding="utf-8"?>
<!-- Generator: Adobe Illustrator 16.0.0, SVG Export Plug-In . SVG Version: 6.00 Build 0)  -->
<!DOCTYPE svg PUBLIC "-//W3C//DTD SVG 1.1//EN" "http://www.w3.org/Graphics/SVG/1.1/DTD/svg11.dtd">
<svg version="1.1" id="Layer_1" xmlns="http://www.w3.org/2000/svg" xmlns:xlink="http://www.w3.org/1999/xlink" x="0px" y="0px"
	 width="42px" height="42px" viewBox="0 0 27 27" enable-background="new 0 0 27 27" xml:space="preserve">
<g>
	<path fill="#0088CC" d="M22.673,1.328H4.327c-1.657,0-3,1.343-3,3v18.345c0,1.656,1.343,3,3,3h18.347c1.656,0,3-1.344,3-3V4.328
		C25.673,2.67,24.33,1.328,22.673,1.328z M24.13,21.51c0,1.449-1.172,2.621-2.619,2.621H5.488c-1.446,0-2.62-1.172-2.62-2.621V5.488
		c0-1.447,1.174-2.62,2.62-2.62h16.023c1.447,0,2.619,1.172,2.619,2.62V21.51z"/>
	
		<line fill="none" stroke="#0088CC" stroke-width="1.5" stroke-linecap="round" stroke-linejoin="round" stroke-miterlimit="10" x1="13.5" y1="8.428" x2="13.5" y2="18.572"/>
	
		<line fill="none" stroke="#0088CC" stroke-width="1.5" stroke-linecap="round" stroke-linejoin="round" stroke-miterlimit="10" x1="18.572" y1="13.5" x2="8.428" y2="13.5"/>
</g>
</svg>
