<?xml version="1.0" encoding="utf-8"?>
<!-- Generator: Adobe Illustrator 19.0.0, SVG Export Plug-In . SVG Version: 6.00 Build 0)  -->
<svg version="1.1" id="Layer_1" xmlns="http://www.w3.org/2000/svg" xmlns:xlink="http://www.w3.org/1999/xlink" x="0px" y="0px"
	 viewBox="0 0 30 30" style="enable-background:new 0 0 30 30;" xml:space="preserve">
<style type="text/css">
	.st0{fill-rule:evenodd;clip-rule:evenodd;fill:#9BA3A9;}
</style>
<g id="XMLID_11_">
	<path id="XMLID_12_" class="st0" d="M24.6,15.7l-2.8,2.8c-0.4,0.4-1,0.4-1.4,0c-0.4-0.4-0.4-1,0-1.4l1.1-1.1h-8.4c-0.6,0-1-0.4-1-1
		s0.4-1,1-1h8.4l-1.1-1.1c-0.4-0.4-0.4-1,0-1.4c0.4-0.4,1-0.4,1.4,0l2.8,2.8C25,14.7,25,15.3,24.6,15.7z M18.1,7h-11v16h11
		c0.6,0,1,0.4,1,1s-0.4,1-1,1h-12l0,0c-0.6,0-1-0.4-1-1V6c0-0.6,0.4-1,1-1l0,0h12c0.6,0,1,0.4,1,1S18.6,7,18.1,7z"/>
</g>
</svg>
