<?xml version="1.0" encoding="UTF-8" standalone="no"?>
<!-- Generator: Adobe Illustrator 16.0.0, SVG Export Plug-In . SVG Version: 6.00 Build 0)  -->

<svg
   xmlns:dc="http://purl.org/dc/elements/1.1/"
   xmlns:cc="http://creativecommons.org/ns#"
   xmlns:rdf="http://www.w3.org/1999/02/22-rdf-syntax-ns#"
   xmlns:svg="http://www.w3.org/2000/svg"
   xmlns="http://www.w3.org/2000/svg"
   xmlns:sodipodi="http://sodipodi.sourceforge.net/DTD/sodipodi-0.dtd"
   xmlns:inkscape="http://www.inkscape.org/namespaces/inkscape"
   version="1.1"
   id="Layer_1"
   x="0px"
   y="0px"
   width="27px"
   height="27px"
   viewBox="0 0 27 27"
   enable-background="new 0 0 27 27"
   xml:space="preserve"
   inkscape:version="0.48.5 r10040"
   sodipodi:docname="logo2.svg"><metadata
     id="metadata15"><rdf:RDF><cc:Work
         rdf:about=""><dc:format>image/svg+xml</dc:format><dc:type
           rdf:resource="http://purl.org/dc/dcmitype/StillImage" /></cc:Work></rdf:RDF></metadata><defs
     id="defs13" /><sodipodi:namedview
     pagecolor="#ffffff"
     bordercolor="#666666"
     borderopacity="1"
     objecttolerance="10"
     gridtolerance="10"
     guidetolerance="10"
     inkscape:pageopacity="0"
     inkscape:pageshadow="2"
     inkscape:window-width="1366"
     inkscape:window-height="768"
     id="namedview11"
     showgrid="false"
     inkscape:zoom="12.361274"
     inkscape:cx="-5.4560497"
     inkscape:cy="13.249106"
     inkscape:window-x="0"
     inkscape:window-y="-25"
     inkscape:window-maximized="1"
     inkscape:current-layer="g3" /><g
     id="g3"
     style="fill:#6699cc;fill-opacity:1"><path
       fill="#0088CC"
       d="M22.673,1.328H4.327c-1.657,0-3,1.343-3,3v18.345c0,1.656,1.343,3,3,3h18.347c1.656,0,3-1.344,3-3V4.328   C25.673,2.67,24.33,1.328,22.673,1.328z M24.13,21.51c0,1.449-1.172,2.621-2.619,2.621H5.488c-1.446,0-2.62-1.172-2.62-2.621V5.488   c0-1.447,1.174-2.62,2.62-2.62h16.023c1.447,0,2.619,1.172,2.619,2.62V21.51z"
       id="path5"
       style="fill:#6699cc;fill-opacity:1" /><line
       stroke-miterlimit="10"
       x1="13.5"
       y1="8.428"
       x2="13.5"
       y2="18.572"
       id="line7"
       style="fill:#6699cc;fill-opacity:1;stroke:#6699cc"
       stroke-linejoin="round"
       stroke-linecap="round"
       stroke-width="1.5"
       stroke="#0088CC"
       fill="none" /><line
       fill="none"
       stroke="#0088CC"
       stroke-width="1.5"
       stroke-linecap="round"
       stroke-linejoin="round"
       stroke-miterlimit="10"
       x1="18.572"
       y1="13.5"
       x2="8.428"
       y2="13.5"
       id="line9"
       style="fill:#6699cc;fill-opacity:1;stroke:#6699cc" /></g></svg>