<?xml version="1.0" encoding="UTF-8" standalone="no"?>
<!-- Created with Inkscape (http://www.inkscape.org/) -->

<svg
   xmlns:dc="http://purl.org/dc/elements/1.1/"
   xmlns:cc="http://creativecommons.org/ns#"
   xmlns:rdf="http://www.w3.org/1999/02/22-rdf-syntax-ns#"
   xmlns:svg="http://www.w3.org/2000/svg"
   xmlns="http://www.w3.org/2000/svg"
   xmlns:sodipodi="http://sodipodi.sourceforge.net/DTD/sodipodi-0.dtd"
   xmlns:inkscape="http://www.inkscape.org/namespaces/inkscape"
   width="18"
   height="18.417"
   viewBox="0 0 18 18.417"
   id="svg4212"
   version="1.1"
   inkscape:version="0.91 r13725"
   sodipodi:docname="progress_black.svg">
  <defs
     id="defs4214" />
  <sodipodi:namedview
     id="base"
     pagecolor="#ffffff"
     bordercolor="#666666"
     borderopacity="1.0"
     inkscape:pageopacity="0.0"
     inkscape:pageshadow="2"
     inkscape:zoom="31.678384"
     inkscape:cx="8.4358032"
     inkscape:cy="8.7133458"
     inkscape:document-units="px"
     inkscape:current-layer="g4197"
     showgrid="false"
     units="px"
     inkscape:window-width="1366"
     inkscape:window-height="768"
     inkscape:window-x="-1"
     inkscape:window-y="-23"
     inkscape:window-maximized="1"
     showguides="false" />
  <metadata
     id="metadata4217">
    <rdf:RDF>
      <cc:Work
         rdf:about="">
        <dc:format>image/svg+xml</dc:format>
        <dc:type
           rdf:resource="http://purl.org/dc/dcmitype/StillImage" />
        <dc:title></dc:title>
      </cc:Work>
    </rdf:RDF>
  </metadata>
  <g
     inkscape:label="Layer 1"
     inkscape:groupmode="layer"
     id="layer1"
     transform="translate(0,-1033.9452)">
    <g
       id="g4197"
       transform="matrix(-0.1412088,0.99851085,-0.99851085,-0.1412088,842.84058,1131.6154)"
       style="fill:#000000;fill-opacity:1">
      <path
         id="path4162"
         d="m 28.96875,823.98633 a 7.03125,7.03125 0 0 0 -7.03125,7.03125 7.03125,7.03125 0 0 0 7.03125,7.03125 7.03125,7.03125 0 0 0 7.001953,-6.4375 l -1.96875,0 a 5.0728817,5.0728817 0 0 1 -5.033203,4.48047 5.0728817,5.0728817 0 0 1 -5.072266,-5.07422 5.0728817,5.0728817 0 0 1 5.072266,-5.07227 5.0728817,5.0728817 0 0 1 4.205078,2.25391 l -1.988281,1.95703 4.960937,0.006 0.0039,-4.89063 -1.564453,1.53907 a 7.03125,7.03125 0 0 0 -5.617188,-2.82422 z"
         style="opacity:1;fill:#000000;fill-opacity:1;stroke:none;stroke-width:7.5999999;stroke-miterlimit:4;stroke-dasharray:none;stroke-opacity:1"
         inkscape:connector-curvature="0" />
      <rect
         y="823.12701"
         x="20.815454"
         height="15.733127"
         width="16.219261"
         id="rect4195"
         style="opacity:0.275;fill:#000000;fill-opacity:0;stroke:none;stroke-width:7.5999999;stroke-miterlimit:4;stroke-dasharray:none;stroke-opacity:1" />
    </g>
  </g>
</svg>
