<?xml version="1.0" encoding="utf-8"?>
<!-- Generator: Adobe Illustrator 19.0.0, SVG Export Plug-In . SVG Version: 6.00 Build 0)  -->
<svg version="1.1" id="Layer_1" xmlns="http://www.w3.org/2000/svg" xmlns:xlink="http://www.w3.org/1999/xlink" x="0px" y="0px"
	 viewBox="0 0 30 30" style="enable-background:new 0 0 30 30;" xml:space="preserve">
<style type="text/css">
	.st0{fill-rule:evenodd;clip-rule:evenodd;fill:#9BA3A9;}
</style>
<path id="XMLID_15_" class="st0" d="M24.3,22.2l-4.1-4.1c1-1.3,1.5-2.8,1.5-4.5c0-4.1-3.4-7.5-7.5-7.5s-7.5,3.4-7.5,7.5
	s3.4,7.5,7.5,7.5c1.7,0,3.3-0.6,4.5-1.5l4.1,4.1c0.4,0.4,1,0.4,1.4,0C24.7,23.2,24.7,22.6,24.3,22.2z M8.8,13.6c0-3,2.5-5.5,5.5-5.5
	s5.5,2.5,5.5,5.5s-2.5,5.5-5.5,5.5S8.8,16.6,8.8,13.6z"/>
</svg>
