<?xml version="1.0" encoding="UTF-8"?>
<svg width="14px" height="16px" viewBox="0 0 14 16" version="1.1" xmlns="http://www.w3.org/2000/svg" xmlns:xlink="http://www.w3.org/1999/xlink">
    <defs></defs>
    <g id="Page-1" stroke="none" stroke-width="1" fill="none" fill-rule="evenodd">
        <g id="Task-Manager---Mobile-(Card)" transform="translate(-300.000000, -310.000000)" fill="#9BA3A9">
            <g id="Group-12" transform="translate(5.000000, 292.000000)">
                <path d="M297,18.9953976 L297,27.0046024 C297,27.5443356 296.552285,28 296,28 C295.443865,28 295,27.5543453 295,27.0046024 L295,18.9953976 C295,18.4556644 295.447715,18 296,18 C296.556135,18 297,18.4456547 297,18.9953976 Z M303,19.0008717 L303,32.9991283 C303,33.5553691 302.552285,34 302,34 C301.443865,34 301,33.5518945 301,32.9991283 L301,19.0008717 C301,18.4446309 301.447715,18 302,18 C302.556135,18 303,18.4481055 303,19.0008717 Z M309,18.9985023 L309,30.0014977 C309,30.5525106 308.552285,31 308,31 C307.443865,31 307,30.5529553 307,30.0014977 L307,18.9985023 C307,18.4474894 307.447715,18 308,18 C308.556135,18 309,18.4470447 309,18.9985023 Z" id="Status"></path>
            </g>
        </g>
    </g>
</svg>