<?xml version="1.0" encoding="UTF-8" standalone="no"?>
<!-- Generator: Adobe Illustrator 19.1.0, SVG Export Plug-In . SVG Version: 6.00 Build 0)  -->

<svg
   xmlns:x="adobe:ns:meta/"
   xmlns:dc="http://purl.org/dc/elements/1.1/"
   xmlns:cc="http://creativecommons.org/ns#"
   xmlns:rdf="http://www.w3.org/1999/02/22-rdf-syntax-ns#"
   xmlns:svg="http://www.w3.org/2000/svg"
   xmlns="http://www.w3.org/2000/svg"
   xmlns:sodipodi="http://sodipodi.sourceforge.net/DTD/sodipodi-0.dtd"
   xmlns:inkscape="http://www.inkscape.org/namespaces/inkscape"
   version="1.1"
   id="Layer_1"
   x="0px"
   y="0px"
   viewBox="0 0 44.400002 44.400002"
   xml:space="preserve"
   inkscape:version="0.91 r13725"
   sodipodi:docname="tabulate-icon.svg"
   width="44.400002"
   height="44.400002"><defs
     id="defs3427" /><sodipodi:namedview
     pagecolor="#ffffff"
     bordercolor="#666666"
     borderopacity="1"
     objecttolerance="10"
     gridtolerance="10"
     guidetolerance="10"
     inkscape:pageopacity="0"
     inkscape:pageshadow="2"
     inkscape:window-width="1871"
     inkscape:window-height="1056"
     id="namedview3425"
     showgrid="false"
     inkscape:snap-page="false"
     fit-margin-top="0"
     fit-margin-left="0"
     fit-margin-right="0"
     fit-margin-bottom="0"
     inkscape:zoom="18.541911"
     inkscape:cx="24.755134"
     inkscape:cy="25.142588"
     inkscape:window-x="49"
     inkscape:window-y="24"
     inkscape:window-maximized="1"
     inkscape:current-layer="Layer_1"
     inkscape:showpageshadow="false" /><metadata
     id="metadata3421"><x:xmpmeta
       x:xmptk="Adobe XMP Core 5.6-c067 79.157747, 2015/03/30-23:40:42        "><metadata><rdf:RDF><rdf:Description
             rdf:about="" /><cc:Work
             rdf:about=""><dc:format>image/svg+xml</dc:format><dc:type
               rdf:resource="http://purl.org/dc/dcmitype/StillImage" /><dc:title></dc:title></cc:Work></rdf:RDF></metadata></x:xmpmeta></metadata><path
     d="m 13.7,24.7 17,0 0,3.9 -17,0 0,-3.9 z m 0,-8.9 17,0 0,3.9 -17,0 0,-3.9 z M 0,44.4 44.4,44.4 44.4,0 0,0 0,44.4 Z"
     id="path3423"
     inkscape:connector-curvature="0"
     style="fill:#57a6db" /><path
     style="fill:#000000;fill-opacity:0"
     d="m 13.742246,17.736535 0,-1.941547 8.467304,0 8.467304,0 0,1.941547 0,1.941547 -8.467304,0 -8.467304,0 0,-1.941547 z"
     id="path3560"
     inkscape:connector-curvature="0" /><path
     style="fill:#000000;fill-opacity:0"
     d="m 13.742246,26.66226 0,-1.914581 8.467304,0 8.467304,0 0,1.914581 0,1.914582 -8.467304,0 -8.467304,0 0,-1.914582 z"
     id="path3562"
     inkscape:connector-curvature="0" /></svg>