<?xml version="1.0" encoding="utf-8"?>
<!-- Generator: Adobe Illustrator 19.0.0, SVG Export Plug-In . SVG Version: 6.00 Build 0)  -->
<svg version="1.1" id="Layer_1" xmlns="http://www.w3.org/2000/svg" xmlns:xlink="http://www.w3.org/1999/xlink" x="0px" y="0px"
	 viewBox="0 0 30 30" style="enable-background:new 0 0 30 30;" xml:space="preserve">
<style type="text/css">
	.st0{fill:#9BA3A9;}
	.st1{fill-rule:evenodd;clip-rule:evenodd;fill:#9BA3A9;}
</style>
<g>
	<path class="st0" d="M24,8.5h-4v-1c0-1.7-1.3-3-3-3h-4c-1.7,0-3,1.3-3,3v1H6c-0.6,0-1,0.4-1,1s0.4,1,1,1h1v12c0,1.7,1.3,3,3,3h10
		c1.7,0,3-1.3,3-3v-12h1c0.6,0,1-0.4,1-1S24.6,8.5,24,8.5z M12,7.5c0-0.6,0.4-1,1-1h4c0.6,0,1,0.4,1,1v1h-6V7.5z M21,22.5
		c0,0.6-0.4,1-1,1H10c-0.6,0-1-0.4-1-1v-12h12V22.5z"/>
	<path class="st1" d="M11,12.5c0.6,0,1,0.4,1,1v7c0,0.6-0.4,1-1,1s-1-0.4-1-1v-7C10,12.9,10.4,12.5,11,12.5z"/>
	<path class="st1" d="M19,12.5c0.6,0,1,0.4,1,1v7c0,0.6-0.4,1-1,1s-1-0.4-1-1v-7C18,12.9,18.4,12.5,19,12.5z"/>
	<path class="st1" d="M15,12.5c0.6,0,1,0.4,1,1v7c0,0.6-0.4,1-1,1s-1-0.4-1-1v-7C14,12.9,14.4,12.5,15,12.5z"/>
</g>
</svg>
